# xmcd
#
# Track frame offsets: 
#        150
#        15377
#        31120
#        47051
#        66116
#        83217
#        95992
#        111358
#        134443
#        151523
#
# Disc length: 2311 seconds
#
# Revision: 0
# Processed by: cddbd v1.5.1PL0 Copyright (c) Steve Scherf et al.
# Submitted via: ExactAudioCopy v0.95a5
#
DISCID=7809050a
DTITLE=Matty Charles;Matty Charles and the Valentines - Matty Charles and 
DTITLE=the Valentines
DYEAR=2001
DGENRE=Country
TTITLE0=Red Italian Rose
TTITLE1=Big City
TTITLE2=What I Want
TTITLE3=Lucky Boy
TTITLE4=Summer Days
TTITLE5=Guitar Song
TTITLE6=Cellophane Lights
TTITLE7=Silly Things
TTITLE8=Satellite
TTITLE9=White Angel
EXTD=
EXTT0=
EXTT1=
EXTT2=
EXTT3=
EXTT4=
EXTT5=
EXTT6=
EXTT7=
EXTT8=
EXTT9=
PLAYORDER=
